REM DIRINDEX 1\2,1\3,1\4,1\5,1\6,1\7,1\8
REM DIRNAME folder01,folder02,folder03,folder04,folder05,folder06,folder07,folder08
TITLE ""
FILE "21_Ch5_Housework_Words.mp3" MP3
  TRACK 01 AUDIO
    TITLE "0:"
    INDEX 01 00:00:00
  TRACK 02 AUDIO
    TITLE "8:cjc152_1101"
    INDEX 01 00:00:31
  TRACK 03 AUDIO
    TITLE "0:"
    INDEX 01 00:03:08
  TRACK 04 AUDIO
    TITLE "8:cjc152_1102"
    INDEX 01 00:03:70
  TRACK 05 AUDIO
    TITLE "0:"
    INDEX 01 00:05:07
  TRACK 06 AUDIO
    TITLE "2:cjc152_1103"
    INDEX 01 00:06:00
  TRACK 07 AUDIO
    TITLE "0:"
    INDEX 01 00:07:27
  TRACK 08 AUDIO
    TITLE "2:cjc152_1104"
    INDEX 01 00:07:58
  TRACK 09 AUDIO
    TITLE "0:"
    INDEX 01 00:09:04
  TRACK 10 AUDIO
    TITLE "2:cjc152_1105"
    INDEX 01 00:10:18
  TRACK 11 AUDIO
    TITLE "0:"
    INDEX 01 00:11:39
  TRACK 12 AUDIO
    TITLE "2:cjc152_1106"
    INDEX 01 00:11:68
  TRACK 13 AUDIO
    TITLE "0:"
    INDEX 01 00:13:35
  TRACK 14 AUDIO
    TITLE "2:cjc152_1107"
    INDEX 01 00:14:17
  TRACK 15 AUDIO
    TITLE "0:"
    INDEX 01 00:15:38
  TRACK 16 AUDIO
    TITLE "2:cjc152_1108"
    INDEX 01 00:15:70
  TRACK 17 AUDIO
    TITLE "0:"
    INDEX 01 00:17:08
  TRACK 18 AUDIO
    TITLE "2:cjc152_1109"
    INDEX 01 00:17:69
  TRACK 19 AUDIO
    TITLE "0:"
    INDEX 01 00:19:48
  TRACK 20 AUDIO
    TITLE "2:cjc152_1110"
    INDEX 01 00:20:04
  TRACK 21 AUDIO
    TITLE "0:"
    INDEX 01 00:21:25
  TRACK 22 AUDIO
    TITLE "2:cjc152_1111"
    INDEX 01 00:22:09
  TRACK 23 AUDIO
    TITLE "0:"
    INDEX 01 00:23:32
  TRACK 24 AUDIO
    TITLE "2:cjc152_1112"
    INDEX 01 00:23:63
  TRACK 25 AUDIO
    TITLE "0:"
    INDEX 01 00:24:69
  TRACK 26 AUDIO
    TITLE "2:cjc152_1113"
    INDEX 01 00:25:52
  TRACK 27 AUDIO
    TITLE "0:"
    INDEX 01 00:27:00
  TRACK 28 AUDIO
    TITLE "2:cjc152_1114"
    INDEX 01 00:27:32
  TRACK 29 AUDIO
    TITLE "0:"
    INDEX 01 00:28:55
  TRACK 30 AUDIO
    TITLE "2:cjc152_1115"
    INDEX 01 00:29:38
  TRACK 31 AUDIO
    TITLE "0:"
    INDEX 01 00:31:00
  TRACK 32 AUDIO
    TITLE "2:cjc152_1116"
    INDEX 01 00:31:31
  TRACK 33 AUDIO
    TITLE "0:"
    INDEX 01 00:33:21
  TRACK 34 AUDIO
    TITLE "2:cjc152_1117"
    INDEX 01 00:34:04
  TRACK 35 AUDIO
    TITLE "0:"
    INDEX 01 00:35:68
  TRACK 36 AUDIO
    TITLE "2:cjc152_1118"
    INDEX 01 00:36:25
  TRACK 37 AUDIO
    TITLE "0:"
    INDEX 01 00:38:20
  TRACK 38 AUDIO
    TITLE "2:cjc152_1119"
    INDEX 01 00:39:03
  TRACK 39 AUDIO
    TITLE "0:"
    INDEX 01 00:40:09
  TRACK 40 AUDIO
    TITLE "2:cjc152_1120"
    INDEX 01 00:40:38
  TRACK 41 AUDIO
    TITLE "0:"
    INDEX 01 00:42:06
  TRACK 42 AUDIO
    TITLE "2:cjc152_1121"
    INDEX 01 00:42:66
  TRACK 43 AUDIO
    TITLE "0:"
    INDEX 01 00:44:48
  TRACK 44 AUDIO
    TITLE "2:cjc152_1122"
    INDEX 01 00:45:04
  TRACK 45 AUDIO
    TITLE "0:"
    INDEX 01 00:47:01
  TRACK 46 AUDIO
    TITLE "2:cjc152_1123"
    INDEX 01 00:47:60
  TRACK 47 AUDIO
    TITLE "0:"
    INDEX 01 00:49:25
  TRACK 48 AUDIO
    TITLE "2:cjc152_1124"
    INDEX 01 00:49:53
  TRACK 49 AUDIO
    TITLE "0:"
    INDEX 01 00:51:22
  TRACK 50 AUDIO
    TITLE "2:cjc152_1125"
    INDEX 01 00:52:08
  TRACK 51 AUDIO
    TITLE "0:"
    INDEX 01 00:53:25
  TRACK 52 AUDIO
    TITLE "2:cjc152_1126"
    INDEX 01 00:53:57
  TRACK 53 AUDIO
    TITLE "0:"
    INDEX 01 00:56:24
  TRACK 54 AUDIO
    TITLE "2:cjc152_1127"
    INDEX 01 00:57:07
  TRACK 55 AUDIO
    TITLE "0:"
    INDEX 01 00:58:50
  TRACK 56 AUDIO
    TITLE "2:cjc152_1128"
    INDEX 01 00:59:06
  TRACK 57 AUDIO
    TITLE "0:"
    INDEX 01 01:01:15
  TRACK 58 AUDIO
    TITLE "2:cjc152_1129"
    INDEX 01 01:01:72
  TRACK 59 AUDIO
    TITLE "0:"
    INDEX 01 01:03:26
  TRACK 60 AUDIO
    TITLE "2:cjc152_1130"
    INDEX 01 01:03:53
  TRACK 61 AUDIO
    TITLE "0:"
    INDEX 01 01:05:11
  TRACK 62 AUDIO
    TITLE "2:cjc152_1131"
    INDEX 01 01:05:69
  TRACK 63 AUDIO
    TITLE "0:"
    INDEX 01 01:06:61
  TRACK 64 AUDIO
    TITLE "2:cjc152_1132"
    INDEX 01 01:07:17
  TRACK 65 AUDIO
    TITLE "0:"
    INDEX 01 01:08:27
  TRACK 66 AUDIO
    TITLE "2:cjc152_1133"
    INDEX 01 01:09:10
  TRACK 67 AUDIO
    TITLE "0:"
    INDEX 01 01:10:30
  TRACK 68 AUDIO
    TITLE "2:cjc152_1134"
    INDEX 01 01:10:61
  TRACK 69 AUDIO
    TITLE "0:"
    INDEX 01 01:12:23
  TRACK 70 AUDIO
    TITLE "2:cjc152_1135"
    INDEX 01 01:13:04
  TRACK 71 AUDIO
    TITLE "0:"
    INDEX 01 01:14:23
  TRACK 72 AUDIO
    TITLE "2:cjc152_1136"
    INDEX 01 01:14:55
  TRACK 73 AUDIO
    TITLE "0:"
    INDEX 01 01:16:40
  TRACK 74 AUDIO
    TITLE "2:cjc152_1137"
    INDEX 01 01:17:24
  TRACK 75 AUDIO
    TITLE "0:"
    INDEX 01 01:18:43
  TRACK 76 AUDIO
    TITLE "2:cjc152_1138"
    INDEX 01 01:18:74
  TRACK 77 AUDIO
    TITLE "0:"
    INDEX 01 01:20:49
  TRACK 78 AUDIO
    TITLE "2:cjc152_1139"
    INDEX 01 01:21:31
  TRACK 79 AUDIO
    TITLE "0:"
    INDEX 01 01:22:48
  TRACK 80 AUDIO
    TITLE "2:cjc152_1140"
    INDEX 01 01:23:03
  TRACK 81 AUDIO
    TITLE "0:"
    INDEX 01 01:24:37
  TRACK 82 AUDIO
    TITLE "2:cjc152_1141"
    INDEX 01 01:25:21
  TRACK 83 AUDIO
    TITLE "0:"
    INDEX 01 01:26:58
  TRACK 84 AUDIO
    TITLE "2:cjc152_1142"
    INDEX 01 01:27:14
  TRACK 85 AUDIO
    TITLE "0:"
    INDEX 01 01:29:11
  TRACK 86 AUDIO
    TITLE "2:cjc152_1143"
    INDEX 01 01:29:70
  TRACK 87 AUDIO
    TITLE "0:"
    INDEX 01 01:31:06
  TRACK 88 AUDIO
    TITLE "2:cjc152_1144"
    INDEX 01 01:31:38
  TRACK 89 AUDIO
    TITLE "0:"
    INDEX 01 01:32:74
  TRACK 90 AUDIO
    TITLE "2:cjc152_1145"
    INDEX 01 01:33:58
  TRACK 91 AUDIO
    TITLE "0:"
    INDEX 01 01:35:06
  TRACK 92 AUDIO
    TITLE "2:cjc152_1146"
    INDEX 01 01:35:35
  TRACK 93 AUDIO
    TITLE "0:"
    INDEX 01 01:36:66
  TRACK 94 AUDIO
    TITLE "2:cjc152_1147"
    INDEX 01 01:37:46
  TRACK 95 AUDIO
    TITLE "0:"
    INDEX 01 01:39:66
  TRACK 96 AUDIO
    TITLE "2:cjc152_1148"
    INDEX 01 01:40:23
  TRACK 97 AUDIO
    TITLE "0:"
    INDEX 01 01:42:00
  TRACK 98 AUDIO
    TITLE "2:cjc152_1149"
    INDEX 01 01:42:59
  TRACK 99 AUDIO
    TITLE "0:"
    INDEX 01 01:43:56
  TRACK 100 AUDIO
    TITLE "2:cjc152_1150"
    INDEX 01 01:44:13
  TRACK 101 AUDIO
    TITLE "0:"
    INDEX 01 01:45:24
  TRACK 102 AUDIO
    TITLE "2:cjc152_1151"
    INDEX 01 01:46:08
  TRACK 103 AUDIO
    TITLE "0:"
    INDEX 01 01:47:19
  TRACK 104 AUDIO
    TITLE "2:cjc152_1152"
    INDEX 01 01:47:48
  TRACK 105 AUDIO
    TITLE "0:"
    INDEX 01 01:49:04
  TRACK 106 AUDIO
    TITLE "2:cjc152_1153"
    INDEX 01 01:50:07
  TRACK 107 AUDIO
    TITLE "0:"
    INDEX 01 01:51:17
  TRACK 108 AUDIO
    TITLE "2:cjc152_1154"
    INDEX 01 01:51:48
  TRACK 109 AUDIO
    TITLE "0:"
    INDEX 01 01:52:73
  TRACK 110 AUDIO
    TITLE "2:cjc152_1155"
    INDEX 01 01:53:55
  TRACK 111 AUDIO
    TITLE "0:"
    INDEX 01 01:54:74
  TRACK 112 AUDIO
    TITLE "2:cjc152_1156"
    INDEX 01 01:55:28
  TRACK 113 AUDIO
    TITLE "0:"
    INDEX 01 01:56:47
  TRACK 114 AUDIO
    TITLE "2:cjc152_1157"
    INDEX 01 01:57:31
  TRACK 115 AUDIO
    TITLE "0:"
    INDEX 01 01:58:62
  TRACK 116 AUDIO
    TITLE "2:cjc152_1158"
    INDEX 01 01:59:18
  TRACK 117 AUDIO
    TITLE "0:"
    INDEX 01 02:00:27
  TRACK 118 AUDIO
    TITLE "2:cjc152_1159"
    INDEX 01 02:01:11
  TRACK 119 AUDIO
    TITLE "0:"
    INDEX 01 02:02:24
  TRACK 120 AUDIO
    TITLE "2:cjc152_1160"
    INDEX 01 02:02:56
  TRACK 121 AUDIO
    TITLE "0:"
    INDEX 01 02:04:17
